<svg width="120" height="38" viewBox="0 0 120 38" fill="none" xmlns="http://www.w3.org/2000/svg">
<g clip-path="url(#clip0_1613_4283)">
<path d="M57.4058 36.1974C55.247 35.0134 53.4719 33.2579 52.2837 31.1316C51.0404 28.9499 50.4188 26.4211 50.4188 23.5453C50.3633 20.9056 51.0197 18.2984 52.3217 15.9869C53.5399 13.8452 55.3535 12.0863 57.5517 10.9149C59.8372 9.74703 62.3766 9.13721 64.9541 9.13721C67.5317 9.13721 70.0711 9.74703 72.3566 10.9149C74.5572 12.0845 76.3749 13.8409 77.5992 15.9807C78.8998 18.2927 79.5562 20.8996 79.5022 23.539C79.5528 26.186 78.8734 28.7973 77.5358 31.0974C76.2694 33.2539 74.4128 35.0204 72.1758 36.1974C69.8853 37.4018 67.3219 38.0207 64.7226 37.9969C62.165 38.0344 59.6421 37.4139 57.4058 36.1974ZM68.9789 31.9117C70.3431 31.1655 71.4645 30.057 72.2139 28.7137C73.0427 27.2944 73.4571 25.5695 73.4571 23.539C73.4571 21.5086 73.0607 19.792 72.2678 18.3893C71.5405 17.058 70.4401 15.9581 69.0962 15.2193C67.7973 14.5131 66.3349 14.146 64.8495 14.1533C63.3728 14.1436 61.919 14.511 60.6313 15.2193C59.315 15.9597 58.2488 17.0618 57.5643 18.3893C56.8032 19.7941 56.4226 21.5106 56.4226 23.539C56.4226 26.5516 57.2081 28.8773 58.7791 30.5162C59.5325 31.3189 60.4531 31.9537 61.4784 32.3778C62.5038 32.8019 63.6101 33.0054 64.7226 32.9746C66.2102 32.9784 67.6746 32.6128 68.9789 31.9117Z" fill="#EE6624"/>
<path d="M50.9482 31.8527C50.7072 31.4331 50.4978 30.998 50.298 30.5536C49.0294 32.2691 47.0958 33.1269 44.4972 33.1269C42.0805 33.1269 40.1564 32.2815 38.7249 30.5909C37.2935 28.9002 36.5778 26.5496 36.5778 23.5391C36.5778 20.5307 37.2935 18.1884 38.7249 16.5122C40.1564 14.836 42.0805 13.9989 44.4972 14.001C46.2225 14.001 47.655 14.3905 48.7947 15.1696C49.377 15.5673 49.8882 16.0567 50.3075 16.6178C50.52 16.1486 50.7484 15.6855 51.0053 15.2411C51.7032 14.0301 52.5712 12.9212 53.5838 11.9467C53.4125 11.81 53.2476 11.6701 53.0668 11.5427C50.8065 9.93488 47.9521 9.13097 44.5035 9.13097C41.9698 9.08355 39.4686 9.69707 37.2565 10.9087C35.1501 12.0936 33.4342 13.8451 32.312 15.9559C31.1237 18.1376 30.5285 20.6653 30.5264 23.5391C30.5243 26.4128 31.1173 28.9437 32.3056 31.1316C33.4316 33.2462 35.146 35.0048 37.2501 36.2037C39.4575 37.4294 41.9606 38.0509 44.4972 38.0031C47.8802 38.0031 50.7103 37.1661 52.9875 35.492C53.1493 35.377 53.3047 35.2496 53.4506 35.1253C52.4648 34.1541 51.6225 33.0525 50.9482 31.8527Z" fill="#EE6624"/>
<path d="M91.8144 10.4269C93.6228 9.54776 95.619 9.10349 97.6375 9.13094C100.039 9.101 102.402 9.71579 104.472 10.9086C106.529 12.114 108.198 13.8633 109.287 15.9558C110.492 18.2706 111.097 20.8411 111.047 23.4396C111.092 26.0535 110.488 28.639 109.287 30.9731C108.193 33.1034 106.518 34.8947 104.447 36.1477C102.542 37.2529 100.389 37.884 98.1778 37.9858C95.9663 38.0877 93.763 37.6572 91.7605 36.732C90.1648 35.9771 88.7729 34.8645 87.6977 33.4843V34.6497C87.6977 35.4171 87.3866 36.1531 86.8329 36.6957C86.2791 37.2383 85.5281 37.5431 84.745 37.5431C84.3574 37.5431 83.9736 37.4683 83.6155 37.3228C83.2574 37.1774 82.9321 36.9642 82.6582 36.6955C82.3843 36.4268 82.1671 36.1078 82.019 35.7568C81.871 35.4057 81.795 35.0295 81.7954 34.6497V2.89032C81.7954 2.12376 82.1062 1.3886 82.6593 0.846557C83.2125 0.304516 83.9627 0 84.745 0C85.5276 -4.42364e-07 86.2781 0.304416 86.8318 0.846368C87.3854 1.38832 87.6969 2.12348 87.6977 2.89032V13.7492C88.7759 12.3322 90.1885 11.1922 91.8144 10.4269ZM103.825 18.4421C103.079 17.105 101.968 15.9977 100.616 15.2441C99.3121 14.5238 97.8399 14.1479 96.3435 14.1533C94.8591 14.1557 93.4022 14.5451 92.1221 15.2814C90.7666 16.0513 89.6556 17.1745 88.9124 18.5261C88.071 20.069 87.6525 21.7995 87.6977 23.5484C87.6542 25.306 88.0725 27.0451 88.9124 28.5987C89.6288 29.9215 90.6987 31.0286 92.0076 31.8015C93.3165 32.5745 94.8152 32.9843 96.3435 32.987C97.8467 32.9904 99.3229 32.5952 100.616 31.8433C101.977 31.0466 103.088 29.8969 103.825 28.521C104.661 26.9581 105.079 25.2131 105.04 23.4489C105.088 21.7047 104.669 19.9785 103.825 18.4421Z" fill="#EE6624"/>
<path d="M116.248 9.58789H116.245C114.616 9.58789 113.295 10.8819 113.295 12.4782V34.6498C113.295 36.2461 114.616 37.5401 116.245 37.5401H116.248C117.877 37.5401 119.198 36.2461 119.198 34.6498V12.4782C119.198 10.8819 117.877 9.58789 116.248 9.58789Z" fill="#EE6624"/>
<path d="M53.4508 35.119C52.4655 34.1497 51.6232 33.0503 50.9484 31.8526C50.7073 31.433 50.498 30.9979 50.2982 30.5535C49.0296 32.269 47.096 33.1268 44.4974 33.1268C42.0806 33.1268 40.1566 32.2815 38.7251 30.5908C37.2937 28.9001 36.5779 26.5495 36.5779 23.539C36.5779 22.9889 36.6097 22.4668 36.6572 21.9602C30.5615 24.8226 32.3058 31.1315 32.3058 31.1315C33.4318 33.2461 35.1462 35.0047 37.2503 36.2036C39.4577 37.4293 41.9607 38.0508 44.4974 38.0031C47.8804 38.0031 50.7105 37.166 52.9877 35.4919C53.1495 35.3707 53.3049 35.2433 53.4508 35.119Z" fill="url(#paint0_linear_1613_4283)"/>
<path d="M77.5481 31.0973C78.8858 28.7972 79.5651 26.1859 79.5145 23.539C79.5314 21.6969 79.2213 19.8661 78.5979 18.1282C77.4054 18.2587 75.1599 18.5135 72.5085 18.8585C73.1747 20.3306 73.4996 21.9291 73.46 23.539C73.46 25.5695 73.0455 27.2943 72.2167 28.7136C71.4673 30.0569 70.3459 31.1655 68.9817 31.9116C67.6765 32.6132 66.2109 32.9789 64.7222 32.9745C63.6093 33.0046 62.5026 32.8001 61.4773 32.3749C60.4519 31.9497 59.5316 31.3137 58.7787 30.5099C57.2098 28.869 56.4243 26.5433 56.4222 23.5328C56.422 23.0053 56.4517 22.4782 56.511 21.954C51.7473 23.9834 51.7188 29.6491 51.7188 29.963C51.8964 30.3608 52.0835 30.7493 52.2991 31.1253C53.4865 33.2539 55.2616 35.0117 57.4213 36.1974C59.6511 37.4102 62.1658 38.0305 64.7159 37.9968C67.3248 38.0253 69.8987 37.4063 72.1977 36.1974C74.4312 35.0189 76.2843 33.2526 77.5481 31.0973Z" fill="url(#paint1_linear_1613_4283)"/>
<path d="M102.864 29.9225L108.491 32.2907C108.78 31.8652 109.047 31.4254 109.29 30.973C110.491 28.6389 111.096 26.0534 111.05 23.4395C111.1 20.841 110.496 18.2705 109.29 15.9557C108.201 13.8632 106.533 12.1139 104.475 10.9085C102.405 9.71569 100.042 9.1009 97.6406 9.13084C95.6221 9.10339 93.6259 9.54765 91.8176 10.4268C90.1893 11.1913 88.7745 12.3313 87.6945 13.7491V23.5389C87.6509 21.7902 88.0693 20.0602 88.9092 18.5166C89.6546 17.1681 90.7667 16.0482 92.122 15.2813C93.4031 14.5483 94.8599 14.1621 96.3434 14.1625C97.8397 14.1586 99.3115 14.5344 100.616 15.2534C101.967 16.0069 103.079 17.1142 103.825 18.4514C104.668 19.985 105.086 21.7077 105.04 23.4488C105.079 25.2129 104.661 26.958 103.825 28.5209C103.547 29.0148 103.226 29.4839 102.864 29.9225Z" fill="url(#paint2_linear_1613_4283)"/>
<path d="M113.295 25.9695C113.295 25.9695 114.564 19.3217 119.198 17.9512V34.6498C119.198 35.4172 118.887 36.1531 118.333 36.6958C117.779 37.2384 117.028 37.5432 116.245 37.5432C115.462 37.5424 114.712 37.2372 114.159 36.6947C113.606 36.1521 113.295 35.4166 113.295 34.6498V25.9695Z" fill="url(#paint3_linear_1613_4283)"/>
<path d="M77.65 16.0055C76.4619 13.8757 74.6857 12.1169 72.5247 10.9304C70.2958 9.71497 67.7806 9.09345 65.2301 9.12782C62.6196 9.0977 60.044 9.71796 57.7451 10.9304C55.5093 12.1075 53.653 13.8727 52.3852 16.0273C51.401 17.6963 50.7761 19.5452 50.5488 21.4599H56.6478C56.8165 20.3904 57.1784 19.3591 57.7166 18.4142C58.4686 17.0725 59.5908 15.9653 60.9548 15.2193C62.2625 14.515 63.7315 14.1482 65.2237 14.1533C66.3342 14.1256 67.4379 14.3309 68.4608 14.7554C69.4837 15.18 70.4022 15.8139 71.1546 16.6147C72.7256 18.2556 73.51 20.5814 73.5079 23.5919C73.5091 24.1193 73.4805 24.6464 73.4223 25.1707C78.1797 23.1599 78.2304 17.4818 78.2304 17.1679C78.0433 16.7701 77.8625 16.3816 77.65 16.0055Z" fill="url(#paint4_linear_1613_4283)"/>
<path d="M25.2046 25.7208H6.10847C6.27974 27.9522 7.12549 29.7455 8.64574 31.1005C10.1736 32.4565 12.1766 33.1824 14.2372 33.1268C16.9014 33.1268 18.91 32.209 20.2632 30.3733C20.5222 30.0187 20.8634 29.7295 21.2587 29.5296C21.6541 29.3296 22.0924 29.2247 22.5373 29.2233C23.0845 29.2243 23.6195 29.3823 24.0763 29.6776C24.533 29.973 24.8916 30.3929 25.1078 30.8856C25.3239 31.3783 25.3882 31.9221 25.2927 32.4502C25.1972 32.9782 24.946 33.4673 24.5703 33.8572C23.9848 34.4755 23.3413 35.0384 22.6483 35.5385C20.388 37.1795 17.5843 38 14.2372 38C11.676 38.0398 9.14916 37.4181 6.91088 36.1974C4.76499 35.0096 3.00575 33.2513 1.83635 31.1254C0.612116 28.9436 0 26.4149 0 23.539C0 20.6632 0.5952 18.1355 1.7856 15.9558C2.92091 13.8295 4.6661 12.0751 6.80622 10.9086C9.0839 9.69438 11.6448 9.08174 14.2372 9.13092C16.7476 9.08869 19.2265 9.68286 21.4336 10.8558C23.5084 11.9798 25.2127 13.6606 26.3463 15.701C27.5508 17.9068 28.1569 20.3789 28.1066 22.8802V22.9112C28.1007 23.6605 27.792 24.377 27.248 24.9036C26.704 25.4302 25.9692 25.7241 25.2046 25.7208ZM21.9505 21.0589C21.9209 18.9269 21.1439 17.2176 19.6194 15.9309C18.0949 14.6443 16.2142 14.001 13.9772 14.001C12.0506 13.9611 10.1808 14.6411 8.74722 15.903C7.29887 17.171 6.4362 18.8865 6.15921 21.0496L21.9505 21.0589Z" fill="#EE6624"/>
<path d="M21.9506 21.0527H6.15934C5.84415 22.5898 5.82694 24.1712 6.10859 25.7145H21.9506V21.0527Z" fill="url(#paint5_linear_1613_4283)"/>
<path d="M113.581 6.34016C113.225 5.99727 112.945 5.58642 112.758 5.13307C112.57 4.67973 112.48 4.19355 112.493 3.70468C112.484 3.21587 112.576 2.73036 112.763 2.2771C112.95 1.82383 113.228 1.41209 113.581 1.06639C113.934 0.7207 114.354 0.448135 114.817 0.264941C115.279 0.0817476 115.775 -0.00832518 116.273 8.99843e-05C116.764 -0.00863581 117.252 0.0814722 117.706 0.264835C118.16 0.448198 118.57 0.720912 118.912 1.06609C119.268 1.4099 119.547 1.82135 119.735 2.27513C119.922 2.72891 120.012 3.21541 120 3.70468C120.012 4.19345 119.921 4.67942 119.734 5.13266C119.547 5.5859 119.267 5.99682 118.912 6.34016C118.57 6.68534 118.16 6.95805 117.706 7.14141C117.252 7.32478 116.764 7.41489 116.273 7.40616C115.774 7.41865 115.277 7.33047 114.814 7.1471C114.351 6.96373 113.931 6.68907 113.581 6.34016Z" fill="#EE6624"/>
</g>
<defs>
<linearGradient id="paint0_linear_1613_4283" x1="32.642" y1="26.6034" x2="50.8164" y2="37.4638" gradientUnits="userSpaceOnUse">
<stop offset="0.04" stop-color="#EF4923"/>
<stop offset="1" stop-color="#EE6624"/>
</linearGradient>
<linearGradient id="paint1_linear_1613_4283" x1="54.2211" y1="23.971" x2="81.4567" y2="31.0445" gradientUnits="userSpaceOnUse">
<stop offset="0.04" stop-color="#EF4923"/>
<stop offset="1" stop-color="#EE6624"/>
</linearGradient>
<linearGradient id="paint2_linear_1613_4283" x1="90.7551" y1="13.457" x2="112.295" y2="29.1957" gradientUnits="userSpaceOnUse">
<stop offset="0.04" stop-color="#EF4923"/>
<stop offset="1" stop-color="#EE6624"/>
</linearGradient>
<linearGradient id="paint3_linear_1613_4283" x1="115.452" y1="24.2819" x2="119.52" y2="36.3323" gradientUnits="userSpaceOnUse">
<stop offset="0.04" stop-color="#EF4923"/>
<stop offset="1" stop-color="#EE6624"/>
</linearGradient>
<linearGradient id="paint4_linear_1613_4283" x1="76.5495" y1="15.7973" x2="51.7586" y2="20.1841" gradientUnits="userSpaceOnUse">
<stop offset="0.04" stop-color="#EF4923"/>
<stop offset="1" stop-color="#EE6624"/>
</linearGradient>
<linearGradient id="paint5_linear_1613_4283" x1="5.90244" y1="23.3867" x2="19.4166" y2="23.3867" gradientUnits="userSpaceOnUse">
<stop offset="0.04" stop-color="#EF4923"/>
<stop offset="1" stop-color="#EE6624"/>
</linearGradient>
<clipPath id="clip0_1613_4283">
<rect width="120" height="38" fill="white"/>
</clipPath>
</defs>
</svg>
