<svg width="101" height="100" viewBox="0 0 101 100" fill="none" xmlns="http://www.w3.org/2000/svg">
<circle cx="50.5" cy="50" r="50" fill="#FFF8DB"/>
<path d="M70.0312 62.5781L53.3906 34.1406C52.6875 33.0469 51.5938 32.5 50.5 32.5C49.3281 32.5 48.2344 33.0469 47.5312 34.1406L30.8125 62.5781C29.6406 64.7656 31.2031 67.5 33.7812 67.5H67.1406C69.7188 67.5 71.2812 64.7656 70.0312 62.5781ZM34.5625 63.75L50.4219 36.6406L66.3594 63.75H34.5625ZM50.5 56.4062C49.0938 56.4062 48 57.5 48 58.8281C48 60.1562 49.0938 61.25 50.5 61.25C51.8281 61.25 52.9219 60.1562 52.9219 58.8281C52.9219 57.5 51.8281 56.4062 50.5 56.4062ZM48.625 44.375V51.875C48.625 52.9688 49.4062 53.75 50.5 53.75C51.5156 53.75 52.375 52.9688 52.375 51.875V44.375C52.375 43.3594 51.5156 42.5 50.5 42.5C49.4062 42.5 48.625 43.3594 48.625 44.375Z" fill="#FFCC00"/>
</svg>
